grf
version=1
nRows=14
nColumns=73
inDegrees=yes
endheader
time	ground_force_1_vx	ground_force_1_vy	ground_force_1_vz	ground_force_1_px	ground_force_1_py	ground_force_1_pz	ground_moment_1_mx	ground_moment_1_my	ground_moment_1_mz	ground_force_2_vx	ground_force_2_vy	ground_force_2_vz	ground_force_2_px	ground_force_2_py	ground_force_2_pz	ground_moment_2_mx	ground_moment_2_my	ground_moment_2_mz	ground_force_3_vx	ground_force_3_vy	ground_force_3_vz	ground_force_3_px	ground_force_3_py	ground_force_3_pz	ground_moment_3_mx	ground_moment_3_my	ground_moment_3_mz	ground_force_4_vx	ground_force_4_vy	ground_force_4_vz	ground_force_4_px	ground_force_4_py	ground_force_4_pz	ground_moment_4_mx	ground_moment_4_my	ground_moment_4_mz	ground_force_5_vx	ground_force_5_vy	ground_force_5_vz	ground_force_5_px	ground_force_5_py	ground_force_5_pz	ground_moment_5_mx	ground_moment_5_my	ground_moment_5_mz	ground_force_6_vx	ground_force_6_vy	ground_force_6_vz	ground_force_6_px	ground_force_6_py	ground_force_6_pz	ground_moment_6_mx	ground_moment_6_my	ground_moment_6_mz	ground_force_7_vx	ground_force_7_vy	ground_force_7_vz	ground_force_7_px	ground_force_7_py	ground_force_7_pz	ground_moment_7_mx	ground_moment_7_my	ground_moment_7_mz	ground_force_8_vx	ground_force_8_vy	ground_force_8_vz	ground_force_8_px	ground_force_8_py	ground_force_8_pz	ground_moment_8_mx	ground_moment_8_my	ground_moment_8_mz
0.575000	0.000000	0.000000	0.000000	0.000000	0.000000	0.000000	0.000000	0.000000	0.000000	-4.416326	422.513912	-5.844877	0.426544	0.000000	0.412665	-0.000000	2.273030	0.000000	-4.572822	419.024088	-7.062834	0.430773	0.000000	0.416347	-0.000000	2.166396	-0.000000	0.000000	0.000000	0.000000	0.000000	0.000000	0.000000	0.000000	0.000000	0.000000	-5.319247	417.461307	-6.572774	0.431928	0.000000	0.412834	-0.000000	2.149956	0.000000	0.000000	0.000000	0.000000	0.000000	0.000000	0.000000	0.000000	0.000000	0.000000	0.000000	0.000000	0.000000	0.000000	0.000000	0.000000	0.000000	0.000000	0.000000	-4.947931	416.373573	-6.174585	0.430319	0.000000	0.412931	-0.000000	2.402000	0.000000
0.576000	0.000000	0.000000	0.000000	0.000000	0.000000	0.000000	0.000000	0.000000	0.000000	-4.220024	422.500341	-5.958132	0.425538	0.000000	0.412739	-0.000000	2.273870	0.000000	-4.384857	418.651301	-7.263482	0.429833	0.000000	0.416444	-0.000000	2.159151	-0.000000	0.000000	0.000000	0.000000	0.000000	0.000000	0.000000	0.000000	0.000000	0.000000	-5.133580	417.195829	-6.772162	0.430958	0.000000	0.412906	-0.000000	2.148056	0.000000	-0.250060	5.838308	1.898522	0.206235	0.000000	0.399716	-0.000000	0.325061	0.000000	0.000000	0.000000	0.000000	0.000000	0.000000	0.000000	0.000000	0.000000	0.000000	-4.770109	416.408284	-6.312475	0.429276	0.000000	0.412978	-0.000000	2.399297	0.000000
0.577000	0.000000	0.000000	0.000000	0.000000	0.000000	0.000000	0.000000	0.000000	0.000000	-4.023231	422.458574	-6.069760	0.424523	0.000000	0.412819	-0.000000	2.274561	0.000000	-4.192131	418.218780	-7.468720	0.428890	0.000000	0.416543	-0.000000	2.149909	-0.000000	0.000000	0.000000	0.000000	0.000000	0.000000	0.000000	0.000000	0.000000	0.000000	-4.944282	416.874664	-6.977090	0.429988	0.000000	0.412981	-0.000000	2.144775	0.000000	0.000000	0.000000	0.000000	0.000000	0.000000	0.000000	0.000000	0.000000	0.000000	0.000000	0.000000	0.000000	0.000000	0.000000	0.000000	0.000000	0.000000	0.000000	-4.591757	416.419616	-6.450343	0.428228	0.000000	0.413029	-0.000000	2.396189	0.000000
0.578000	0.000000	0.000000	0.000000	0.000000	0.000000	0.000000	0.000000	0.000000	0.000000	-3.824505	422.393286	-6.180290	0.423500	0.000000	0.412904	-0.000000	2.275842	0.000000	-3.994899	417.727845	-7.678819	0.427945	0.000000	0.416643	-0.000000	2.139020	-0.000000	0.000000	0.000000	0.000000	0.000000	0.000000	0.000000	0.000000	0.000000	0.000000	-4.749631	416.497291	-7.186736	0.429018	0.000000	0.413059	-0.000000	2.139623	0.000000	-0.288357	6.176969	1.974888	0.218122	0.000000	0.399556	-0.000000	0.327256	0.000000	0.000000	0.000000	0.000000	0.000000	0.000000	0.000000	0.000000	0.000000	0.000000	-4.410187	416.409482	-6.587681	0.427175	0.000000	0.413083	-0.000000	2.392317	0.000000
0.579000	0.000000	0.000000	0.000000	0.000000	0.000000	0.000000	0.000000	0.000000	0.000000	-3.622967	422.310262	-6.289845	0.422471	0.000000	0.412991	-0.000000	2.278282	0.000000	-3.793676	417.180647	-7.893541	0.427000	0.000000	0.416741	-0.000000	2.126711	-0.000000	0.000000	0.000000	0.000000	0.000000	0.000000	0.000000	0.000000	0.000000	0.000000	-4.548900	416.063935	-7.401017	0.428048	0.000000	0.413138	-0.000000	2.132544	0.000000	0.000000	0.000000	0.000000	0.000000	0.000000	0.000000	0.000000	0.000000	0.000000	0.000000	0.000000	0.000000	0.000000	0.000000	0.000000	0.000000	0.000000	0.000000	-4.223356	416.380630	-6.724659	0.426118	0.000000	0.413141	-0.000000	2.387855	0.000000
0.580000	0.000000	0.000000	0.000000	0.000000	0.000000	0.000000	0.000000	0.000000	0.000000	-3.417842	422.215551	-6.398424	0.421439	0.000000	0.413080	-0.000000	2.281915	0.000000	-3.588702	416.579257	-8.112235	0.426057	0.000000	0.416838	-0.000000	2.112959	-0.000000	0.000000	0.000000	0.000000	0.000000	0.000000	0.000000	0.000000	0.000000	0.000000	-4.342462	415.575892	-7.620254	0.427080	0.000000	0.413218	-0.000000	2.123805	0.000000	-0.317392	6.568865	2.052432	0.229919	0.000000	0.399410	-0.000000	0.329694	0.000000	0.000000	0.000000	0.000000	0.000000	0.000000	0.000000	0.000000	0.000000	0.000000	-4.030217	416.336930	-6.861620	0.425057	0.000000	0.413201	-0.000000	2.383464	0.000000
0.581000	0.000000	0.000000	0.000000	0.000000	0.000000	0.000000	0.000000	0.000000	0.000000	-3.208104	422.115336	-6.506317	0.420404	0.000000	0.413170	-0.000000	2.286192	0.000000	-3.379702	415.925403	-8.334134	0.425121	0.000000	0.416932	-0.000000	2.097548	-0.000000	0.000000	0.000000	0.000000	0.000000	0.000000	0.000000	0.000000	0.000000	0.000000	-4.131242	415.035327	-7.844410	0.426115	0.000000	0.413297	-0.000000	2.113678	0.000000	-0.336985	7.017365	2.131435	0.241501	0.000000	0.399313	-0.000000	0.332770	0.000000	0.000000	0.000000	0.000000	0.000000	0.000000	0.000000	0.000000	0.000000	0.000000	-3.830401	416.283142	-6.998443	0.423995	0.000000	0.413262	-0.000000	2.379850	0.000000
0.582000	0.000000	0.000000	0.000000	0.000000	0.000000	0.000000	0.000000	0.000000	0.000000	-2.992566	422.016479	-6.613959	0.419372	0.000000	0.413261	-0.000000	2.290242	0.000000	-3.166017	415.221076	-8.558294	0.424195	0.000000	0.417023	-0.000000	2.080230	-0.000000	2.228114	16.004406	1.240276	0.284181	0.000000	0.372674	0.000000	-0.055810	-0.000000	-3.916056	414.444368	-8.072902	0.425155	0.000000	0.413374	-0.000000	2.102221	0.000000	-0.347064	7.525805	2.212120	0.252766	0.000000	0.399296	-0.000000	0.336706	0.000000	0.000000	0.000000	0.000000	0.000000	0.000000	0.000000	0.000000	0.000000	0.000000	-3.623706	416.224253	-7.134601	0.422933	0.000000	0.413325	-0.000000	2.377267	0.000000
0.583000	0.000000	0.000000	0.000000	0.000000	0.000000	0.000000	0.000000	0.000000	0.000000	-2.770293	421.926500	-6.721710	0.418345	0.000000	0.413351	-0.000000	2.293327	0.000000	-2.946987	414.468661	-8.783668	0.423284	0.000000	0.417109	-0.000000	2.060907	-0.000000	0.000000	0.000000	0.000000	0.000000	0.000000	0.000000	0.000000	0.000000	0.000000	-3.697222	413.804490	-8.304905	0.424204	0.000000	0.413449	-0.000000	2.089260	0.000000	-0.347710	8.097594	2.294271	0.263625	0.000000	0.399382	-0.000000	0.341325	0.000000	0.000000	0.000000	0.000000	0.000000	0.000000	0.000000	0.000000	0.000000	0.000000	-3.409660	416.165246	-7.269687	0.421875	0.000000	0.413389	-0.000000	2.375329	0.000000
0.584000	0.000000	0.000000	0.000000	0.000000	0.000000	0.000000	0.000000	0.000000	0.000000	-2.540916	421.852359	-6.830206	0.417327	0.000000	0.413438	-0.000000	2.295161	0.000000	-2.722445	413.669989	-9.009693	0.422392	0.000000	0.417189	-0.000000	2.039829	-0.000000	0.000000	0.000000	0.000000	0.000000	0.000000	0.000000	0.000000	0.000000	0.000000	-3.474506	413.116926	-8.539436	0.423265	0.000000	0.413521	-0.000000	2.074502	0.000000	-0.339104	8.736318	2.377184	0.274005	0.000000	0.399585	-0.000000	0.346097	0.000000	0.000000	0.000000	0.000000	0.000000	0.000000	0.000000	0.000000	0.000000	0.000000	-3.187410	416.111708	-7.403459	0.420823	0.000000	0.413452	-0.000000	2.373197	0.000000
0.585000	0.000000	0.000000	0.000000	0.000000	0.000000	0.000000	0.000000	0.000000	0.000000	-2.304749	421.799183	-6.940651	0.416318	0.000000	0.413522	-0.000000	2.295885	0.000000	-2.493135	412.825590	-9.236578	0.421521	0.000000	0.417263	-0.000000	2.017618	-0.000000	0.000000	0.000000	0.000000	0.000000	0.000000	0.000000	0.000000	0.000000	0.000000	-3.247417	412.383279	-8.775256	0.422343	0.000000	0.413590	-0.000000	2.057705	0.000000	0.000000	0.000000	0.000000	0.000000	0.000000	0.000000	0.000000	0.000000	0.000000	0.000000	0.000000	0.000000	0.000000	0.000000	0.000000	0.000000	0.000000	0.000000	-2.956074	416.070377	-7.535489	0.419781	0.000000	0.413516	-0.000000	2.370017	0.000000
0.586000	0.000000	0.000000	0.000000	0.000000	0.000000	0.000000	0.000000	0.000000	0.000000	-2.062631	421.770333	-7.054331	0.415321	0.000000	0.413602	-0.000000	2.295787	0.000000	-2.260685	411.935136	-9.464672	0.420671	0.000000	0.417328	-0.000000	1.995077	-0.000000	2.085935	16.026712	1.472450	0.288398	0.000000	0.377092	0.000000	-0.028922	-0.000000	-3.015733	411.605057	-9.011279	0.421441	0.000000	0.413656	-0.000000	2.038881	0.000000	0.000000	0.000000	0.000000	0.000000	0.000000	0.000000	0.000000	0.000000	0.000000	0.000000	0.000000	0.000000	0.000000	0.000000	0.000000	0.000000	0.000000	0.000000	-2.715254	416.048132	-7.665424	0.418752	0.000000	0.413578	-0.000000	2.365302	0.000000
0.587000	0.000000	0.000000	0.000000	0.000000	0.000000	0.000000	0.000000	0.000000	0.000000	-1.815434	421.768200	-7.172186	0.414334	0.000000	0.413675	-0.000000	2.294990	0.000000	-2.027213	410.998088	-9.693799	0.419842	0.000000	0.417385	-0.000000	1.972930	-0.000000	1.949930	16.198381	1.694480	0.292600	0.000000	0.381269	0.000000	-0.002922	-0.000000	-2.780027	410.782612	-9.247123	0.420562	0.000000	0.413716	-0.000000	2.018427	0.000000	-0.321571	9.445759	2.459987	0.283843	0.000000	0.399916	-0.000000	0.350374	-0.000000	0.000000	0.000000	0.000000	0.000000	0.000000	0.000000	0.000000	0.000000	0.000000	-2.465403	416.049980	-7.793701	0.417738	0.000000	0.413638	-0.000000	2.359030	0.000000
0.588000	0.000000	0.000000	0.000000	0.000000	0.000000	0.000000	0.000000	0.000000	0.000000	-1.563743	421.794580	-7.295035	0.413360	0.000000	0.413742	0.000000	2.293312	0.000000	-1.795022	410.013531	-9.923420	0.419034	0.000000	0.417431	-0.000000	1.951646	-0.000000	1.823404	16.522309	1.905053	0.296745	0.000000	0.385182	0.000000	0.021602	-0.000000	-2.541867	409.915187	-9.482838	0.419706	0.000000	0.413771	-0.000000	1.997017	0.000000	-0.295437	10.229748	2.541915	0.293088	0.000000	0.400372	-0.000000	0.353571	-0.000000	0.000000	0.000000	0.000000	0.000000	0.000000	0.000000	0.000000	0.000000	0.000000	-2.207818	416.078611	-7.921417	0.416740	0.000000	0.413696	-0.000000	2.351462	0.000000
